<?xml version="1.0" encoding="utf-8" standalone="no"?>
<!DOCTYPE svg PUBLIC "-//W3C//DTD SVG 1.1//EN"
  "http://www.w3.org/Graphics/SVG/1.1/DTD/svg11.dtd">
<svg xmlns:xlink="http://www.w3.org/1999/xlink" width="786.33925pt" height="617.85925pt" viewBox="0 0 786.33925 617.85925" xmlns="http://www.w3.org/2000/svg" version="1.1">
 <metadata>
  <rdf:RDF xmlns:dc="http://purl.org/dc/elements/1.1/" xmlns:cc="http://creativecommons.org/ns#" xmlns:rdf="http://www.w3.org/1999/02/22-rdf-syntax-ns#">
   <cc:Work>
    <dc:type rdf:resource="http://purl.org/dc/dcmitype/StillImage"/>
    <dc:date>2024-04-23T22:23:55.028764</dc:date>
    <dc:format>image/svg+xml</dc:format>
    <dc:creator>
     <cc:Agent>
      <dc:title>Matplotlib v3.7.1, https://matplotlib.org/</dc:title>
     </cc:Agent>
    </dc:creator>
   </cc:Work>
  </rdf:RDF>
 </metadata>
 <defs>
  <style type="text/css">*{stroke-linejoin: round; stroke-linecap: butt}</style>
 </defs>
 <g id="figure_1">
  <g id="patch_1">
   <path d="M 0 617.85925 
L 786.33925 617.85925 
L 786.33925 0 
L 0 0 
z
" style="fill: #ffffff"/>
  </g>
  <g id="axes_1">
   <g id="patch_2">
    <path d="M 27.45925 590.4 
L 779.13925 590.4 
L 779.13925 7.2 
L 27.45925 7.2 
z
" style="fill: #ffffff"/>
   </g>
   <g id="matplotlib.axis_1">
    <g id="text_1">
     <!-- size -->
     <g transform="translate(387.012437 607.165375) scale(0.168 -0.168)">
      <defs>
       <path id="DejaVuSans-73" d="M 2834 3397 
L 2834 2853 
Q 2591 2978 2328 3040 
Q 2066 3103 1784 3103 
Q 1356 3103 1142 2972 
Q 928 2841 928 2578 
Q 928 2378 1081 2264 
Q 1234 2150 1697 2047 
L 1894 2003 
Q 2506 1872 2764 1633 
Q 3022 1394 3022 966 
Q 3022 478 2636 193 
Q 2250 -91 1575 -91 
Q 1294 -91 989 -36 
Q 684 19 347 128 
L 347 722 
Q 666 556 975 473 
Q 1284 391 1588 391 
Q 1994 391 2212 530 
Q 2431 669 2431 922 
Q 2431 1156 2273 1281 
Q 2116 1406 1581 1522 
L 1381 1569 
Q 847 1681 609 1914 
Q 372 2147 372 2553 
Q 372 3047 722 3315 
Q 1072 3584 1716 3584 
Q 2034 3584 2315 3537 
Q 2597 3491 2834 3397 
z
" transform="scale(0.015625)"/>
       <path id="DejaVuSans-69" d="M 603 3500 
L 1178 3500 
L 1178 0 
L 603 0 
L 603 3500 
z
M 603 4863 
L 1178 4863 
L 1178 4134 
L 603 4134 
L 603 4863 
z
" transform="scale(0.015625)"/>
       <path id="DejaVuSans-7a" d="M 353 3500 
L 3084 3500 
L 3084 2975 
L 922 459 
L 3084 459 
L 3084 0 
L 275 0 
L 275 525 
L 2438 3041 
L 353 3041 
L 353 3500 
z
" transform="scale(0.015625)"/>
       <path id="DejaVuSans-65" d="M 3597 1894 
L 3597 1613 
L 953 1613 
Q 991 1019 1311 708 
Q 1631 397 2203 397 
Q 2534 397 2845 478 
Q 3156 559 3463 722 
L 3463 178 
Q 3153 47 2828 -22 
Q 2503 -91 2169 -91 
Q 1331 -91 842 396 
Q 353 884 353 1716 
Q 353 2575 817 3079 
Q 1281 3584 2069 3584 
Q 2775 3584 3186 3129 
Q 3597 2675 3597 1894 
z
M 3022 2063 
Q 3016 2534 2758 2815 
Q 2500 3097 2075 3097 
Q 1594 3097 1305 2825 
Q 1016 2553 972 2059 
L 3022 2063 
z
" transform="scale(0.015625)"/>
      </defs>
      <use xlink:href="#DejaVuSans-73"/>
      <use xlink:href="#DejaVuSans-69" x="52.099609"/>
      <use xlink:href="#DejaVuSans-7a" x="79.882812"/>
      <use xlink:href="#DejaVuSans-65" x="132.373047"/>
     </g>
    </g>
   </g>
   <g id="matplotlib.axis_2">
    <g id="text_2">
     <!-- runtime -->
     <g transform="translate(19.965375 331.877625) rotate(-90) scale(0.168 -0.168)">
      <defs>
       <path id="DejaVuSans-72" d="M 2631 2963 
Q 2534 3019 2420 3045 
Q 2306 3072 2169 3072 
Q 1681 3072 1420 2755 
Q 1159 2438 1159 1844 
L 1159 0 
L 581 0 
L 581 3500 
L 1159 3500 
L 1159 2956 
Q 1341 3275 1631 3429 
Q 1922 3584 2338 3584 
Q 2397 3584 2469 3576 
Q 2541 3569 2628 3553 
L 2631 2963 
z
" transform="scale(0.015625)"/>
       <path id="DejaVuSans-75" d="M 544 1381 
L 544 3500 
L 1119 3500 
L 1119 1403 
Q 1119 906 1312 657 
Q 1506 409 1894 409 
Q 2359 409 2629 706 
Q 2900 1003 2900 1516 
L 2900 3500 
L 3475 3500 
L 3475 0 
L 2900 0 
L 2900 538 
Q 2691 219 2414 64 
Q 2138 -91 1772 -91 
Q 1169 -91 856 284 
Q 544 659 544 1381 
z
M 1991 3584 
L 1991 3584 
z
" transform="scale(0.015625)"/>
       <path id="DejaVuSans-6e" d="M 3513 2113 
L 3513 0 
L 2938 0 
L 2938 2094 
Q 2938 2591 2744 2837 
Q 2550 3084 2163 3084 
Q 1697 3084 1428 2787 
Q 1159 2491 1159 1978 
L 1159 0 
L 581 0 
L 581 3500 
L 1159 3500 
L 1159 2956 
Q 1366 3272 1645 3428 
Q 1925 3584 2291 3584 
Q 2894 3584 3203 3211 
Q 3513 2838 3513 2113 
z
" transform="scale(0.015625)"/>
       <path id="DejaVuSans-74" d="M 1172 4494 
L 1172 3500 
L 2356 3500 
L 2356 3053 
L 1172 3053 
L 1172 1153 
Q 1172 725 1289 603 
Q 1406 481 1766 481 
L 2356 481 
L 2356 0 
L 1766 0 
Q 1100 0 847 248 
Q 594 497 594 1153 
L 594 3053 
L 172 3053 
L 172 3500 
L 594 3500 
L 594 4494 
L 1172 4494 
z
" transform="scale(0.015625)"/>
       <path id="DejaVuSans-6d" d="M 3328 2828 
Q 3544 3216 3844 3400 
Q 4144 3584 4550 3584 
Q 5097 3584 5394 3201 
Q 5691 2819 5691 2113 
L 5691 0 
L 5113 0 
L 5113 2094 
Q 5113 2597 4934 2840 
Q 4756 3084 4391 3084 
Q 3944 3084 3684 2787 
Q 3425 2491 3425 1978 
L 3425 0 
L 2847 0 
L 2847 2094 
Q 2847 2600 2669 2842 
Q 2491 3084 2119 3084 
Q 1678 3084 1418 2786 
Q 1159 2488 1159 1978 
L 1159 0 
L 581 0 
L 581 3500 
L 1159 3500 
L 1159 2956 
Q 1356 3278 1631 3431 
Q 1906 3584 2284 3584 
Q 2666 3584 2933 3390 
Q 3200 3197 3328 2828 
z
" transform="scale(0.015625)"/>
      </defs>
      <use xlink:href="#DejaVuSans-72"/>
      <use xlink:href="#DejaVuSans-75" x="41.113281"/>
      <use xlink:href="#DejaVuSans-6e" x="104.492188"/>
      <use xlink:href="#DejaVuSans-74" x="167.871094"/>
      <use xlink:href="#DejaVuSans-69" x="207.080078"/>
      <use xlink:href="#DejaVuSans-6d" x="234.863281"/>
      <use xlink:href="#DejaVuSans-65" x="332.275391"/>
     </g>
    </g>
   </g>
   <g id="line2d_1">
    <path d="M 61.626523 582.068571 
L 744.971977 582.068571 
L 744.971977 582.068571 
" clip-path="url(#pc021577146)" style="fill: none; stroke: #1f77b4; stroke-width: 4"/>
   </g>
   <g id="line2d_2">
    <path d="M 61.626523 590.4 
L 74.623083 589.083599 
L 90.355761 587.72638 
L 108.824557 586.372365 
L 130.029471 585.048491 
L 154.654533 583.736039 
L 184.0678 582.398907 
L 218.269275 581.07367 
L 258.627014 579.74051 
L 305.825049 578.41159 
L 361.231437 577.081643 
L 426.214238 575.751945 
L 502.14151 574.427089 
L 591.065343 573.103476 
L 695.721854 571.774918 
L 744.971977 571.216177 
L 744.971977 571.216177 
" clip-path="url(#pc021577146)" style="fill: none; stroke: #ff7f0e; stroke-width: 4"/>
   </g>
   <g id="line2d_3">
    <path d="M 61.626523 582.068571 
L 744.971977 507.085714 
L 744.971977 507.085714 
" clip-path="url(#pc021577146)" style="fill: none; stroke: #2ca02c; stroke-width: 4"/>
   </g>
   <g id="line2d_4">
    <path d="M 61.626523 590.4 
L 74.623083 588.858269 
L 88.303673 587.009952 
L 103.352321 584.745898 
L 119.084999 582.152897 
L 136.185736 579.103678 
L 153.970503 575.706128 
L 173.123329 571.816724 
L 192.960184 567.561874 
L 214.165098 562.783341 
L 236.054041 557.624029 
L 259.311044 551.912272 
L 283.252076 545.805849 
L 308.561166 539.120746 
L 335.238316 531.838694 
L 362.599496 524.137766 
L 391.328734 515.817286 
L 420.742002 507.067319 
L 451.523329 497.676765 
L 482.988685 487.846787 
L 515.8221 477.356554 
L 550.023574 466.191995 
L 584.909078 454.569775 
L 621.162641 442.255682 
L 658.100233 429.475787 
L 696.405884 415.987423 
L 736.079594 401.778538 
L 744.971977 398.561768 
L 744.971977 398.561768 
" clip-path="url(#pc021577146)" style="fill: none; stroke: #d62728; stroke-width: 4"/>
   </g>
   <g id="line2d_5">
    <path d="M 61.626523 582.068571 
L 70.518906 580.002788 
L 79.411289 577.70845 
L 88.303673 575.185558 
L 97.196056 572.43411 
L 106.088439 569.454108 
L 114.980822 566.245551 
L 123.873206 562.80844 
L 132.765589 559.142774 
L 141.657972 555.248553 
L 150.550356 551.125777 
L 160.126768 546.430262 
L 169.703181 541.469678 
L 179.279594 536.244024 
L 188.856007 530.753301 
L 198.43242 524.997508 
L 208.008832 518.976646 
L 217.585245 512.690715 
L 227.161658 506.139714 
L 236.738071 499.323644 
L 246.314483 492.242504 
L 255.890896 484.896296 
L 265.467309 477.285017 
L 275.727751 468.83593 
L 285.988193 460.082555 
L 296.248636 451.02489 
L 306.509078 441.662936 
L 316.76952 431.996694 
L 327.029963 422.026163 
L 337.290405 411.751343 
L 347.550847 401.172234 
L 357.811289 390.288836 
L 368.755761 378.344485 
L 379.700233 366.05392 
L 390.644705 353.417143 
L 401.589176 340.434152 
L 412.533648 327.104948 
L 423.47812 313.429531 
L 434.422592 299.407901 
L 445.367063 285.040058 
L 456.995564 269.394878 
L 468.624066 253.358856 
L 480.252567 236.931992 
L 491.881068 220.114286 
L 503.509569 202.905737 
L 515.138071 185.306347 
L 526.766572 167.316114 
L 538.395073 148.935039 
L 550.707604 129.04672 
L 563.020135 108.720225 
L 575.332665 87.955555 
L 587.645196 66.752708 
L 599.957727 45.111685 
L 612.270257 23.032487 
L 624.582788 0.515112 
L 625.402686 -1 
L 625.402686 -1 
" clip-path="url(#pc021577146)" style="fill: none; stroke: #8c564b; stroke-width: 4"/>
   </g>
   <g id="line2d_6">
    <path d="M 61.626523 573.737143 
L 73.939053 571.754882 
L 85.567555 569.666681 
L 96.512026 567.488129 
L 107.456498 565.080667 
L 117.71694 562.594418 
L 127.293353 560.05412 
L 136.869766 557.281742 
L 145.762149 554.481082 
L 154.654533 551.443582 
L 162.862886 548.412231 
L 171.07124 545.144999 
L 179.279594 541.62353 
L 186.803918 538.155309 
L 194.328243 534.440482 
L 201.852567 530.461514 
L 208.692862 526.599279 
L 215.533157 522.488174 
L 222.373451 518.112163 
L 229.213746 513.454177 
L 235.370012 509.005908 
L 241.526277 504.300482 
L 247.682542 499.323033 
L 253.838808 494.057836 
L 259.995073 488.488256 
L 266.151338 482.596696 
L 272.307604 476.364542 
L 277.77984 470.523028 
L 283.252076 464.382279 
L 288.724311 457.926968 
L 294.196547 451.140981 
L 299.668783 444.007379 
L 305.141019 436.508355 
L 310.613255 428.62519 
L 316.085491 420.338207 
L 321.557727 411.62672 
L 327.029963 402.468983 
L 332.502198 392.842137 
L 337.974434 382.722152 
L 343.44667 372.083766 
L 348.918906 360.900424 
L 354.391142 349.144211 
L 359.863378 336.785781 
L 364.651584 325.453936 
L 369.439791 313.615768 
L 374.227997 301.248654 
L 379.016203 288.328959 
L 383.80441 274.831994 
L 388.592616 260.731965 
L 393.380822 246.001927 
L 398.169029 230.613729 
L 402.957235 214.537965 
L 407.745442 197.743913 
L 412.533648 180.199479 
L 417.321854 161.871134 
L 422.110061 142.723853 
L 426.898267 122.721044 
L 431.686474 101.824481 
L 436.47468 79.99423 
L 441.262886 57.188571 
L 446.051093 33.363924 
L 450.839299 8.474757 
L 452.607918 -1 
L 452.607918 -1 
" clip-path="url(#pc021577146)" style="fill: none; stroke: #e377c2; stroke-width: 4"/>
   </g>
   <g id="line2d_7">
    <path d="M 61.626523 582.068571 
L 75.307112 581.317881 
L 87.619643 580.424678 
L 99.248144 579.359665 
L 109.508587 578.209337 
L 119.084999 576.925585 
L 127.977383 575.520432 
L 136.185736 574.010848 
L 143.710061 572.419512 
L 151.234385 570.599344 
L 158.07468 568.717071 
L 164.230945 566.812041 
L 170.387211 564.680984 
L 176.543476 562.295037 
L 182.015712 559.933686 
L 187.487948 557.318759 
L 192.276154 554.799562 
L 197.064361 552.041553 
L 201.852567 549.020166 
L 206.640773 545.708098 
L 210.74495 542.614903 
L 214.849127 539.264798 
L 218.953304 535.634655 
L 223.057481 531.699112 
L 227.161658 527.430345 
L 231.265835 522.797821 
L 235.370012 517.768014 
L 238.790159 513.24657 
L 242.210307 508.400507 
L 245.630454 503.204699 
L 249.050601 497.631954 
L 252.470749 491.652832 
L 255.890896 485.235457 
L 259.311044 478.3453 
L 262.731191 470.944948 
L 266.151338 462.993856 
L 269.571486 454.448071 
L 272.991633 445.259931 
L 276.411781 435.377736 
L 279.831928 424.745398 
L 283.252076 413.302045 
L 286.672223 400.981596 
L 290.09237 387.7123 
L 293.512518 373.416222 
L 296.932665 358.008695 
L 300.352813 341.397706 
L 303.77296 323.483238 
L 307.193107 304.156539 
L 310.613255 283.299336 
L 314.033402 260.782958 
L 317.45355 236.46739 
L 320.873697 210.200236 
L 324.293845 181.815571 
L 327.713992 151.132703 
L 331.134139 117.954803 
L 334.554287 82.067406 
L 337.974434 43.236777 
L 341.394582 1.208108 
L 341.565956 -1 
L 341.565956 -1 
" clip-path="url(#pc021577146)" style="fill: none; stroke: #bcbd22; stroke-width: 4"/>
   </g>
   <g id="line2d_8">
    <path d="M 61.626523 582.068571 
L 69.834877 581.06485 
L 77.359201 579.942038 
L 84.883525 578.58837 
L 91.72382 577.119662 
L 97.880085 575.56858 
L 103.352321 573.977008 
L 108.824557 572.153559 
L 113.612764 570.339953 
L 118.40097 568.293949 
L 123.189176 565.983757 
L 127.293353 563.765764 
L 131.39753 561.300724 
L 135.501707 558.559088 
L 139.605884 555.507503 
L 143.026031 552.700712 
L 146.446179 549.628232 
L 149.866326 546.263061 
L 153.286474 542.575278 
L 156.706621 538.531705 
L 160.126768 534.095543 
L 163.546916 529.225957 
L 166.967063 523.877612 
L 169.703181 519.220579 
L 172.439299 514.196697 
L 175.175417 508.775139 
L 177.911535 502.922347 
L 180.647653 496.601785 
L 183.383771 489.773657 
L 186.119889 482.394612 
L 188.856007 474.417407 
L 191.592125 465.790546 
L 194.328243 456.457884 
L 197.064361 446.358189 
L 199.800479 435.424664 
L 202.536596 423.58442 
L 205.272714 410.757903 
L 208.008832 396.858257 
L 210.74495 381.790634 
L 213.481068 365.451429 
L 216.217186 347.72744 
L 218.953304 328.494953 
L 221.689422 307.618725 
L 224.42554 284.950876 
L 227.161658 260.329662 
L 229.897776 233.578138 
L 232.633894 204.502675 
L 235.370012 172.891333 
L 238.10613 138.512076 
L 240.842248 101.1108 
L 243.578365 60.409166 
L 246.314483 16.102216 
L 247.309486 -1 
L 247.309486 -1 
" clip-path="url(#pc021577146)" style="fill: none; stroke: #17becf; stroke-width: 4"/>
   </g>
   <g id="patch_3">
    <path d="M 27.45925 590.4 
L 27.45925 7.2 
" style="fill: none; stroke: #f0f0f0; stroke-width: 3; stroke-linejoin: miter; stroke-linecap: square"/>
   </g>
   <g id="patch_4">
    <path d="M 779.13925 590.4 
L 779.13925 7.2 
" style="fill: none; stroke: #f0f0f0; stroke-width: 3; stroke-linejoin: miter; stroke-linecap: square"/>
   </g>
   <g id="patch_5">
    <path d="M 27.45925 590.4 
L 779.13925 590.4 
" style="fill: none; stroke: #f0f0f0; stroke-width: 3; stroke-linejoin: miter; stroke-linecap: square"/>
   </g>
   <g id="patch_6">
    <path d="M 27.45925 7.2 
L 779.13925 7.2 
" style="fill: none; stroke: #f0f0f0; stroke-width: 3; stroke-linejoin: miter; stroke-linecap: square"/>
   </g>
   <g id="legend_1">
    <g id="patch_7">
     <path d="M 37.25925 182.795 
L 205.077688 182.795 
Q 207.877688 182.795 207.877688 179.995 
L 207.877688 17 
Q 207.877688 14.2 205.077688 14.2 
L 37.25925 14.2 
Q 34.45925 14.2 34.45925 17 
L 34.45925 179.995 
Q 34.45925 182.795 37.25925 182.795 
z
" style="fill: #ffffff; opacity: 0.8; stroke: #cccccc; stroke-width: 0.5; stroke-linejoin: miter"/>
    </g>
    <g id="line2d_9">
     <path d="M 40.05925 25.537813 
L 54.05925 25.537813 
L 68.05925 25.537813 
" style="fill: none; stroke: #1f77b4; stroke-width: 4"/>
    </g>
    <g id="text_3">
     <!-- Constant -->
     <g transform="translate(79.25925 30.437813) scale(0.14 -0.14)">
      <defs>
       <path id="DejaVuSans-43" d="M 4122 4306 
L 4122 3641 
Q 3803 3938 3442 4084 
Q 3081 4231 2675 4231 
Q 1875 4231 1450 3742 
Q 1025 3253 1025 2328 
Q 1025 1406 1450 917 
Q 1875 428 2675 428 
Q 3081 428 3442 575 
Q 3803 722 4122 1019 
L 4122 359 
Q 3791 134 3420 21 
Q 3050 -91 2638 -91 
Q 1578 -91 968 557 
Q 359 1206 359 2328 
Q 359 3453 968 4101 
Q 1578 4750 2638 4750 
Q 3056 4750 3426 4639 
Q 3797 4528 4122 4306 
z
" transform="scale(0.015625)"/>
       <path id="DejaVuSans-6f" d="M 1959 3097 
Q 1497 3097 1228 2736 
Q 959 2375 959 1747 
Q 959 1119 1226 758 
Q 1494 397 1959 397 
Q 2419 397 2687 759 
Q 2956 1122 2956 1747 
Q 2956 2369 2687 2733 
Q 2419 3097 1959 3097 
z
M 1959 3584 
Q 2709 3584 3137 3096 
Q 3566 2609 3566 1747 
Q 3566 888 3137 398 
Q 2709 -91 1959 -91 
Q 1206 -91 779 398 
Q 353 888 353 1747 
Q 353 2609 779 3096 
Q 1206 3584 1959 3584 
z
" transform="scale(0.015625)"/>
       <path id="DejaVuSans-61" d="M 2194 1759 
Q 1497 1759 1228 1600 
Q 959 1441 959 1056 
Q 959 750 1161 570 
Q 1363 391 1709 391 
Q 2188 391 2477 730 
Q 2766 1069 2766 1631 
L 2766 1759 
L 2194 1759 
z
M 3341 1997 
L 3341 0 
L 2766 0 
L 2766 531 
Q 2569 213 2275 61 
Q 1981 -91 1556 -91 
Q 1019 -91 701 211 
Q 384 513 384 1019 
Q 384 1609 779 1909 
Q 1175 2209 1959 2209 
L 2766 2209 
L 2766 2266 
Q 2766 2663 2505 2880 
Q 2244 3097 1772 3097 
Q 1472 3097 1187 3025 
Q 903 2953 641 2809 
L 641 3341 
Q 956 3463 1253 3523 
Q 1550 3584 1831 3584 
Q 2591 3584 2966 3190 
Q 3341 2797 3341 1997 
z
" transform="scale(0.015625)"/>
      </defs>
      <use xlink:href="#DejaVuSans-43"/>
      <use xlink:href="#DejaVuSans-6f" x="69.824219"/>
      <use xlink:href="#DejaVuSans-6e" x="131.005859"/>
      <use xlink:href="#DejaVuSans-73" x="194.384766"/>
      <use xlink:href="#DejaVuSans-74" x="246.484375"/>
      <use xlink:href="#DejaVuSans-61" x="285.693359"/>
      <use xlink:href="#DejaVuSans-6e" x="346.972656"/>
      <use xlink:href="#DejaVuSans-74" x="410.351562"/>
     </g>
    </g>
    <g id="line2d_10">
     <path d="M 40.05925 46.087188 
L 54.05925 46.087188 
L 68.05925 46.087188 
" style="fill: none; stroke: #ff7f0e; stroke-width: 4"/>
    </g>
    <g id="text_4">
     <!-- Logarithmic -->
     <g transform="translate(79.25925 50.987188) scale(0.14 -0.14)">
      <defs>
       <path id="DejaVuSans-4c" d="M 628 4666 
L 1259 4666 
L 1259 531 
L 3531 531 
L 3531 0 
L 628 0 
L 628 4666 
z
" transform="scale(0.015625)"/>
       <path id="DejaVuSans-67" d="M 2906 1791 
Q 2906 2416 2648 2759 
Q 2391 3103 1925 3103 
Q 1463 3103 1205 2759 
Q 947 2416 947 1791 
Q 947 1169 1205 825 
Q 1463 481 1925 481 
Q 2391 481 2648 825 
Q 2906 1169 2906 1791 
z
M 3481 434 
Q 3481 -459 3084 -895 
Q 2688 -1331 1869 -1331 
Q 1566 -1331 1297 -1286 
Q 1028 -1241 775 -1147 
L 775 -588 
Q 1028 -725 1275 -790 
Q 1522 -856 1778 -856 
Q 2344 -856 2625 -561 
Q 2906 -266 2906 331 
L 2906 616 
Q 2728 306 2450 153 
Q 2172 0 1784 0 
Q 1141 0 747 490 
Q 353 981 353 1791 
Q 353 2603 747 3093 
Q 1141 3584 1784 3584 
Q 2172 3584 2450 3431 
Q 2728 3278 2906 2969 
L 2906 3500 
L 3481 3500 
L 3481 434 
z
" transform="scale(0.015625)"/>
       <path id="DejaVuSans-68" d="M 3513 2113 
L 3513 0 
L 2938 0 
L 2938 2094 
Q 2938 2591 2744 2837 
Q 2550 3084 2163 3084 
Q 1697 3084 1428 2787 
Q 1159 2491 1159 1978 
L 1159 0 
L 581 0 
L 581 4863 
L 1159 4863 
L 1159 2956 
Q 1366 3272 1645 3428 
Q 1925 3584 2291 3584 
Q 2894 3584 3203 3211 
Q 3513 2838 3513 2113 
z
" transform="scale(0.015625)"/>
       <path id="DejaVuSans-63" d="M 3122 3366 
L 3122 2828 
Q 2878 2963 2633 3030 
Q 2388 3097 2138 3097 
Q 1578 3097 1268 2742 
Q 959 2388 959 1747 
Q 959 1106 1268 751 
Q 1578 397 2138 397 
Q 2388 397 2633 464 
Q 2878 531 3122 666 
L 3122 134 
Q 2881 22 2623 -34 
Q 2366 -91 2075 -91 
Q 1284 -91 818 406 
Q 353 903 353 1747 
Q 353 2603 823 3093 
Q 1294 3584 2113 3584 
Q 2378 3584 2631 3529 
Q 2884 3475 3122 3366 
z
" transform="scale(0.015625)"/>
      </defs>
      <use xlink:href="#DejaVuSans-4c"/>
      <use xlink:href="#DejaVuSans-6f" x="53.962891"/>
      <use xlink:href="#DejaVuSans-67" x="115.144531"/>
      <use xlink:href="#DejaVuSans-61" x="178.621094"/>
      <use xlink:href="#DejaVuSans-72" x="239.900391"/>
      <use xlink:href="#DejaVuSans-69" x="281.013672"/>
      <use xlink:href="#DejaVuSans-74" x="308.796875"/>
      <use xlink:href="#DejaVuSans-68" x="348.005859"/>
      <use xlink:href="#DejaVuSans-6d" x="411.384766"/>
      <use xlink:href="#DejaVuSans-69" x="508.796875"/>
      <use xlink:href="#DejaVuSans-63" x="536.580078"/>
     </g>
    </g>
    <g id="line2d_11">
     <path d="M 40.05925 66.636563 
L 54.05925 66.636563 
L 68.05925 66.636563 
" style="fill: none; stroke: #2ca02c; stroke-width: 4"/>
    </g>
    <g id="text_5">
     <!-- Linear -->
     <g transform="translate(79.25925 71.536563) scale(0.14 -0.14)">
      <use xlink:href="#DejaVuSans-4c"/>
      <use xlink:href="#DejaVuSans-69" x="55.712891"/>
      <use xlink:href="#DejaVuSans-6e" x="83.496094"/>
      <use xlink:href="#DejaVuSans-65" x="146.875"/>
      <use xlink:href="#DejaVuSans-61" x="208.398438"/>
      <use xlink:href="#DejaVuSans-72" x="269.677734"/>
     </g>
    </g>
    <g id="line2d_12">
     <path d="M 40.05925 87.185938 
L 54.05925 87.185938 
L 68.05925 87.185938 
" style="fill: none; stroke: #d62728; stroke-width: 4"/>
    </g>
    <g id="text_6">
     <!-- Log Linear -->
     <g transform="translate(79.25925 92.085938) scale(0.14 -0.14)">
      <defs>
       <path id="DejaVuSans-20" transform="scale(0.015625)"/>
      </defs>
      <use xlink:href="#DejaVuSans-4c"/>
      <use xlink:href="#DejaVuSans-6f" x="53.962891"/>
      <use xlink:href="#DejaVuSans-67" x="115.144531"/>
      <use xlink:href="#DejaVuSans-20" x="178.621094"/>
      <use xlink:href="#DejaVuSans-4c" x="210.408203"/>
      <use xlink:href="#DejaVuSans-69" x="266.121094"/>
      <use xlink:href="#DejaVuSans-6e" x="293.904297"/>
      <use xlink:href="#DejaVuSans-65" x="357.283203"/>
      <use xlink:href="#DejaVuSans-61" x="418.806641"/>
      <use xlink:href="#DejaVuSans-72" x="480.085938"/>
     </g>
    </g>
    <g id="line2d_13">
     <path d="M 40.05925 107.735313 
L 54.05925 107.735313 
L 68.05925 107.735313 
" style="fill: none; stroke: #8c564b; stroke-width: 4"/>
    </g>
    <g id="text_7">
     <!-- Polynomial -->
     <g transform="translate(79.25925 112.635313) scale(0.14 -0.14)">
      <defs>
       <path id="DejaVuSans-50" d="M 1259 4147 
L 1259 2394 
L 2053 2394 
Q 2494 2394 2734 2622 
Q 2975 2850 2975 3272 
Q 2975 3691 2734 3919 
Q 2494 4147 2053 4147 
L 1259 4147 
z
M 628 4666 
L 2053 4666 
Q 2838 4666 3239 4311 
Q 3641 3956 3641 3272 
Q 3641 2581 3239 2228 
Q 2838 1875 2053 1875 
L 1259 1875 
L 1259 0 
L 628 0 
L 628 4666 
z
" transform="scale(0.015625)"/>
       <path id="DejaVuSans-6c" d="M 603 4863 
L 1178 4863 
L 1178 0 
L 603 0 
L 603 4863 
z
" transform="scale(0.015625)"/>
       <path id="DejaVuSans-79" d="M 2059 -325 
Q 1816 -950 1584 -1140 
Q 1353 -1331 966 -1331 
L 506 -1331 
L 506 -850 
L 844 -850 
Q 1081 -850 1212 -737 
Q 1344 -625 1503 -206 
L 1606 56 
L 191 3500 
L 800 3500 
L 1894 763 
L 2988 3500 
L 3597 3500 
L 2059 -325 
z
" transform="scale(0.015625)"/>
      </defs>
      <use xlink:href="#DejaVuSans-50"/>
      <use xlink:href="#DejaVuSans-6f" x="56.677734"/>
      <use xlink:href="#DejaVuSans-6c" x="117.859375"/>
      <use xlink:href="#DejaVuSans-79" x="145.642578"/>
      <use xlink:href="#DejaVuSans-6e" x="204.822266"/>
      <use xlink:href="#DejaVuSans-6f" x="268.201172"/>
      <use xlink:href="#DejaVuSans-6d" x="329.382812"/>
      <use xlink:href="#DejaVuSans-69" x="426.794922"/>
      <use xlink:href="#DejaVuSans-61" x="454.578125"/>
      <use xlink:href="#DejaVuSans-6c" x="515.857422"/>
     </g>
    </g>
    <g id="line2d_14">
     <path d="M 40.05925 128.284688 
L 54.05925 128.284688 
L 68.05925 128.284688 
" style="fill: none; stroke: #e377c2; stroke-width: 4"/>
    </g>
    <g id="text_8">
     <!-- Exponential -->
     <g transform="translate(79.25925 133.184688) scale(0.14 -0.14)">
      <defs>
       <path id="DejaVuSans-45" d="M 628 4666 
L 3578 4666 
L 3578 4134 
L 1259 4134 
L 1259 2753 
L 3481 2753 
L 3481 2222 
L 1259 2222 
L 1259 531 
L 3634 531 
L 3634 0 
L 628 0 
L 628 4666 
z
" transform="scale(0.015625)"/>
       <path id="DejaVuSans-78" d="M 3513 3500 
L 2247 1797 
L 3578 0 
L 2900 0 
L 1881 1375 
L 863 0 
L 184 0 
L 1544 1831 
L 300 3500 
L 978 3500 
L 1906 2253 
L 2834 3500 
L 3513 3500 
z
" transform="scale(0.015625)"/>
       <path id="DejaVuSans-70" d="M 1159 525 
L 1159 -1331 
L 581 -1331 
L 581 3500 
L 1159 3500 
L 1159 2969 
Q 1341 3281 1617 3432 
Q 1894 3584 2278 3584 
Q 2916 3584 3314 3078 
Q 3713 2572 3713 1747 
Q 3713 922 3314 415 
Q 2916 -91 2278 -91 
Q 1894 -91 1617 61 
Q 1341 213 1159 525 
z
M 3116 1747 
Q 3116 2381 2855 2742 
Q 2594 3103 2138 3103 
Q 1681 3103 1420 2742 
Q 1159 2381 1159 1747 
Q 1159 1113 1420 752 
Q 1681 391 2138 391 
Q 2594 391 2855 752 
Q 3116 1113 3116 1747 
z
" transform="scale(0.015625)"/>
      </defs>
      <use xlink:href="#DejaVuSans-45"/>
      <use xlink:href="#DejaVuSans-78" x="63.183594"/>
      <use xlink:href="#DejaVuSans-70" x="122.363281"/>
      <use xlink:href="#DejaVuSans-6f" x="185.839844"/>
      <use xlink:href="#DejaVuSans-6e" x="247.021484"/>
      <use xlink:href="#DejaVuSans-65" x="310.400391"/>
      <use xlink:href="#DejaVuSans-6e" x="371.923828"/>
      <use xlink:href="#DejaVuSans-74" x="435.302734"/>
      <use xlink:href="#DejaVuSans-69" x="474.511719"/>
      <use xlink:href="#DejaVuSans-61" x="502.294922"/>
      <use xlink:href="#DejaVuSans-6c" x="563.574219"/>
     </g>
    </g>
    <g id="line2d_15">
     <path d="M 40.05925 148.834063 
L 54.05925 148.834063 
L 68.05925 148.834063 
" style="fill: none; stroke: #bcbd22; stroke-width: 4"/>
    </g>
    <g id="text_9">
     <!-- Factorial -->
     <g transform="translate(79.25925 153.734063) scale(0.14 -0.14)">
      <defs>
       <path id="DejaVuSans-46" d="M 628 4666 
L 3309 4666 
L 3309 4134 
L 1259 4134 
L 1259 2759 
L 3109 2759 
L 3109 2228 
L 1259 2228 
L 1259 0 
L 628 0 
L 628 4666 
z
" transform="scale(0.015625)"/>
      </defs>
      <use xlink:href="#DejaVuSans-46"/>
      <use xlink:href="#DejaVuSans-61" x="48.394531"/>
      <use xlink:href="#DejaVuSans-63" x="109.673828"/>
      <use xlink:href="#DejaVuSans-74" x="164.654297"/>
      <use xlink:href="#DejaVuSans-6f" x="203.863281"/>
      <use xlink:href="#DejaVuSans-72" x="265.044922"/>
      <use xlink:href="#DejaVuSans-69" x="306.158203"/>
      <use xlink:href="#DejaVuSans-61" x="333.941406"/>
      <use xlink:href="#DejaVuSans-6c" x="395.220703"/>
     </g>
    </g>
    <g id="line2d_16">
     <path d="M 40.05925 169.383438 
L 54.05925 169.383438 
L 68.05925 169.383438 
" style="fill: none; stroke: #17becf; stroke-width: 4"/>
    </g>
    <g id="text_10">
     <!-- Superexponential -->
     <g transform="translate(79.25925 174.283438) scale(0.14 -0.14)">
      <defs>
       <path id="DejaVuSans-53" d="M 3425 4513 
L 3425 3897 
Q 3066 4069 2747 4153 
Q 2428 4238 2131 4238 
Q 1616 4238 1336 4038 
Q 1056 3838 1056 3469 
Q 1056 3159 1242 3001 
Q 1428 2844 1947 2747 
L 2328 2669 
Q 3034 2534 3370 2195 
Q 3706 1856 3706 1288 
Q 3706 609 3251 259 
Q 2797 -91 1919 -91 
Q 1588 -91 1214 -16 
Q 841 59 441 206 
L 441 856 
Q 825 641 1194 531 
Q 1563 422 1919 422 
Q 2459 422 2753 634 
Q 3047 847 3047 1241 
Q 3047 1584 2836 1778 
Q 2625 1972 2144 2069 
L 1759 2144 
Q 1053 2284 737 2584 
Q 422 2884 422 3419 
Q 422 4038 858 4394 
Q 1294 4750 2059 4750 
Q 2388 4750 2728 4690 
Q 3069 4631 3425 4513 
z
" transform="scale(0.015625)"/>
      </defs>
      <use xlink:href="#DejaVuSans-53"/>
      <use xlink:href="#DejaVuSans-75" x="63.476562"/>
      <use xlink:href="#DejaVuSans-70" x="126.855469"/>
      <use xlink:href="#DejaVuSans-65" x="190.332031"/>
      <use xlink:href="#DejaVuSans-72" x="251.855469"/>
      <use xlink:href="#DejaVuSans-65" x="290.71875"/>
      <use xlink:href="#DejaVuSans-78" x="350.492188"/>
      <use xlink:href="#DejaVuSans-70" x="409.671875"/>
      <use xlink:href="#DejaVuSans-6f" x="473.148438"/>
      <use xlink:href="#DejaVuSans-6e" x="534.330078"/>
      <use xlink:href="#DejaVuSans-65" x="597.708984"/>
      <use xlink:href="#DejaVuSans-6e" x="659.232422"/>
      <use xlink:href="#DejaVuSans-74" x="722.611328"/>
      <use xlink:href="#DejaVuSans-69" x="761.820312"/>
      <use xlink:href="#DejaVuSans-61" x="789.603516"/>
      <use xlink:href="#DejaVuSans-6c" x="850.882812"/>
     </g>
    </g>
   </g>
  </g>
 </g>
 <defs>
  <clipPath id="pc021577146">
   <rect x="27.45925" y="7.2" width="751.68" height="583.2"/>
  </clipPath>
 </defs>
</svg>
