<?xml version="1.0" encoding="utf-8" standalone="no"?>
<!DOCTYPE svg PUBLIC "-//W3C//DTD SVG 1.1//EN"
  "http://www.w3.org/Graphics/SVG/1.1/DTD/svg11.dtd">
<svg xmlns:xlink="http://www.w3.org/1999/xlink" width="766.08pt" height="619.71779pt" viewBox="0 0 766.08 619.71779" xmlns="http://www.w3.org/2000/svg" version="1.1">
 <metadata>
  <rdf:RDF xmlns:dc="http://purl.org/dc/elements/1.1/" xmlns:cc="http://creativecommons.org/ns#" xmlns:rdf="http://www.w3.org/1999/02/22-rdf-syntax-ns#">
   <cc:Work>
    <dc:type rdf:resource="http://purl.org/dc/dcmitype/StillImage"/>
    <dc:date>2024-04-27T21:32:38.158640</dc:date>
    <dc:format>image/svg+xml</dc:format>
    <dc:creator>
     <cc:Agent>
      <dc:title>Matplotlib v3.7.1, https://matplotlib.org/</dc:title>
     </cc:Agent>
    </dc:creator>
   </cc:Work>
  </rdf:RDF>
 </metadata>
 <defs>
  <style type="text/css">*{stroke-linejoin: round; stroke-linecap: butt}</style>
 </defs>
 <g id="figure_1">
  <g id="patch_1">
   <path d="M 0 619.71779 
L 766.08 619.71779 
L 766.08 0 
L 0 0 
z
" style="fill: #ffffff"/>
  </g>
  <g id="axes_1">
   <g id="patch_2">
    <path d="M 7.2 590.4 
L 758.88 590.4 
L 758.88 7.2 
L 7.2 7.2 
z
" style="fill: #ffffff"/>
   </g>
   <g id="matplotlib.axis_1">
    <g id="text_1">
     <!-- $ n \Rightarrow \infty $ -->
     <g transform="translate(360.36 607.165375) scale(0.168 -0.168)">
      <defs>
       <path id="DejaVuSans-Oblique-6e" d="M 3566 2113 
L 3156 0 
L 2578 0 
L 2988 2091 
Q 3016 2238 3031 2350 
Q 3047 2463 3047 2528 
Q 3047 2791 2881 2937 
Q 2716 3084 2419 3084 
Q 1956 3084 1622 2776 
Q 1288 2469 1184 1941 
L 800 0 
L 225 0 
L 903 3500 
L 1478 3500 
L 1363 2950 
Q 1603 3253 1940 3418 
Q 2278 3584 2650 3584 
Q 3113 3584 3367 3334 
Q 3622 3084 3622 2631 
Q 3622 2519 3608 2391 
Q 3594 2263 3566 2113 
z
" transform="scale(0.015625)"/>
       <path id="DejaVuSans-21d2" d="M 4113 1678 
L 4441 2006 
L 4113 2334 
L 366 2334 
L 366 2709 
L 3738 2709 
L 3447 3000 
L 3822 3375 
L 5050 2147 
L 5050 1866 
L 3822 638 
L 3447 1013 
L 3738 1303 
L 366 1303 
L 366 1678 
L 4113 1678 
z
" transform="scale(0.015625)"/>
       <path id="DejaVuSans-221e" d="M 2916 1091 
Q 2819 1203 2666 1466 
Q 2456 1091 2272 925 
Q 2041 725 1681 725 
Q 1259 725 981 1041 
Q 688 1372 688 1919 
Q 688 2444 981 2800 
Q 1244 3116 1688 3116 
Q 1916 3116 2084 3022 
Q 2281 2919 2416 2741 
Q 2541 2581 2666 2366 
Q 2875 2741 3059 2906 
Q 3291 3106 3650 3106 
Q 4072 3106 4350 2791 
Q 4644 2459 4644 1913 
Q 4644 1388 4350 1031 
Q 4088 716 3644 716 
Q 3416 716 3247 809 
Q 3078 894 2916 1091 
z
M 1647 1134 
Q 2163 1134 2472 1884 
Q 2075 2703 1647 2703 
Q 1334 2703 1175 2478 
Q 1003 2238 1003 1919 
Q 1003 1569 1175 1353 
Q 1350 1134 1647 1134 
z
M 3684 2697 
Q 3219 2697 2859 1947 
Q 3253 1128 3684 1128 
Q 3997 1128 4156 1353 
Q 4328 1594 4328 1913 
Q 4328 2263 4156 2478 
Q 3981 2697 3684 2697 
z
" transform="scale(0.015625)"/>
      </defs>
      <use xlink:href="#DejaVuSans-Oblique-6e"/>
      <use xlink:href="#DejaVuSans-21d2" transform="translate(82.861328 0)"/>
      <use xlink:href="#DejaVuSans-221e" transform="translate(186.132812 0)"/>
     </g>
    </g>
   </g>
   <g id="matplotlib.axis_2"/>
   <g id="line2d_1">
    <path d="M 18.945 496.615284 
L 22.472027 490.748199 
L 26.704459 484.192909 
L 30.936892 478.068445 
L 35.169324 472.299604 
L 40.107162 465.945383 
L 45.045 459.933816 
L 50.688243 453.419306 
L 56.331486 447.229926 
L 62.680135 440.600717 
L 69.028784 434.277816 
L 76.082838 427.564574 
L 83.842297 420.511028 
L 91.601757 413.760877 
L 100.066622 406.700887 
L 108.531486 399.921208 
L 117.701757 392.857114 
L 127.577432 385.539984 
L 137.453108 378.49158 
L 148.034189 371.20666 
L 159.320676 363.709391 
L 171.312568 356.021326 
L 183.304459 348.591217 
L 196.001757 340.978211 
L 209.404459 333.199401 
L 223.512568 325.27012 
L 238.326081 317.204114 
L 253.845 309.013701 
L 270.069324 300.70992 
L 286.999054 292.302671 
L 304.634189 283.800836 
L 322.97473 275.212393 
L 342.020676 266.544517 
L 361.772027 257.803665 
L 382.228784 248.995662 
L 403.390946 240.125765 
L 425.258514 231.198729 
L 447.831486 222.21886 
L 471.81527 212.919953 
L 496.504459 203.588969 
L 521.899054 194.22825 
L 548.704459 184.589297 
L 576.21527 174.936542 
L 604.431486 165.270957 
L 634.058514 155.360155 
L 664.390946 145.448793 
L 696.134189 135.314219 
L 723.645 126.715147 
L 723.645 126.715147 
" clip-path="url(#pe00d9b1139)" style="fill: none; stroke: #1f77b4; stroke-width: 3"/>
   </g>
   <g id="line2d_2">
    <path d="M 18.945 577.595848 
L 19.650405 565.854778 
L 20.355811 560.991467 
L 21.766622 554.113707 
L 23.177432 548.836216 
L 24.588243 544.387086 
L 26.704459 538.655122 
L 28.820676 533.664785 
L 30.936892 529.186174 
L 33.758514 523.791503 
L 36.580135 518.890495 
L 40.107162 513.287356 
L 43.634189 508.134737 
L 47.161216 503.338797 
L 51.393649 497.964033 
L 55.626081 492.929784 
L 60.563919 487.410973 
L 65.501757 482.210939 
L 71.145 476.595339 
L 76.788243 471.275931 
L 83.136892 465.593172 
L 90.190946 459.599548 
L 97.245 453.895993 
L 105.004459 447.911484 
L 113.469324 441.683129 
L 121.934189 435.727951 
L 131.104459 429.54658 
L 140.980135 423.166174 
L 151.561216 416.610398 
L 162.142297 410.311341 
L 173.428784 403.843869 
L 185.420676 397.226098 
L 198.117973 390.473973 
L 211.520676 383.601523 
L 225.628784 376.621091 
L 240.442297 369.543546 
L 255.961216 362.378468 
L 272.185541 355.134315 
L 289.11527 347.818565 
L 306.750405 340.437845 
L 325.090946 332.998036 
L 344.842297 325.2311 
L 365.299054 317.431101 
L 386.461216 309.600927 
L 408.328784 301.743147 
L 431.607162 293.617234 
L 455.590946 285.481407 
L 480.985541 277.107004 
L 507.085541 268.7365 
L 534.596351 260.152383 
L 562.812568 251.582868 
L 592.439595 242.820881 
L 622.772027 234.081735 
L 654.51527 225.168097 
L 687.669324 216.092877 
L 721.528784 207.053907 
L 723.645 206.496282 
L 723.645 206.496282 
" clip-path="url(#pe00d9b1139)" style="fill: none; stroke-dasharray: 7.4,3.2; stroke-dashoffset: 0; stroke: #d62728; stroke-width: 2"/>
   </g>
   <g id="line2d_3">
    <path d="M 18.945 577.595848 
L 19.650405 560.408681 
L 20.355811 553.289523 
L 21.766622 543.221513 
L 23.177432 535.496058 
L 24.588243 528.983197 
L 26.704459 520.592462 
L 28.820676 513.287356 
L 30.936892 506.731341 
L 33.758514 498.834352 
L 36.580135 491.66001 
L 39.401757 485.040118 
L 42.928784 477.378301 
L 46.455811 470.262021 
L 49.982838 463.589076 
L 54.21527 456.064221 
L 58.447703 448.978863 
L 63.385541 441.176935 
L 68.323378 433.797687 
L 73.966622 425.802894 
L 79.609865 418.208613 
L 85.253108 410.960076 
L 91.601757 403.165148 
L 97.950405 395.703963 
L 105.004459 387.757377 
L 112.058514 380.130326 
L 119.817973 372.067217 
L 127.577432 364.308707 
L 136.042297 356.154684 
L 145.212568 347.647218 
L 154.382838 339.443468 
L 164.258514 330.913586 
L 174.134189 322.668955 
L 184.71527 314.121558 
L 196.001757 305.299904 
L 207.288243 296.755215 
L 219.280135 287.952551 
L 231.977432 278.91472 
L 245.380135 269.662426 
L 258.782838 260.680136 
L 272.890946 251.492271 
L 287.704459 242.11572 
L 303.223378 232.565866 
L 318.742297 223.273311 
L 334.966622 213.812078 
L 351.896351 204.19499 
L 369.531486 194.433782 
L 387.872027 184.539191 
L 406.917973 174.521039 
L 426.669324 164.388314 
L 447.126081 154.149241 
L 468.288243 143.811349 
L 490.155811 133.381539 
L 512.728784 122.866136 
L 536.007162 112.270941 
L 559.990946 101.601283 
L 584.680135 90.862058 
L 610.07473 80.057773 
L 636.17473 69.192574 
L 662.980135 58.270284 
L 691.196351 47.015986 
L 720.117973 35.722857 
L 723.645 34.361707 
L 723.645 34.361707 
" clip-path="url(#pe00d9b1139)" style="fill: none; stroke-dasharray: 7.4,3.2; stroke-dashoffset: 0; stroke: #2ca02c; stroke-width: 2"/>
   </g>
   <g id="line2d_4">
    <path d="M 65.925 590.4 
L 65.925 432.3528 
" clip-path="url(#pe00d9b1139)" style="fill: none; stroke-dasharray: 3.7,1.6; stroke-dashoffset: 0; stroke: #000000"/>
   </g>
   <g id="patch_3">
    <path d="M 7.2 590.4 
L 7.2 7.2 
" style="fill: none; stroke: #f0f0f0; stroke-width: 3; stroke-linejoin: miter; stroke-linecap: square"/>
   </g>
   <g id="patch_4">
    <path d="M 758.88 590.4 
L 758.88 7.2 
" style="fill: none; stroke: #f0f0f0; stroke-width: 3; stroke-linejoin: miter; stroke-linecap: square"/>
   </g>
   <g id="patch_5">
    <path d="M 7.2 590.4 
L 758.88 590.4 
" style="fill: none; stroke: #f0f0f0; stroke-width: 3; stroke-linejoin: miter; stroke-linecap: square"/>
   </g>
   <g id="patch_6">
    <path d="M 7.2 7.2 
L 758.88 7.2 
" style="fill: none; stroke: #f0f0f0; stroke-width: 3; stroke-linejoin: miter; stroke-linecap: square"/>
   </g>
   <g id="text_2">
    <!-- $ n0 $ -->
    <g transform="translate(42.435 609.606227) scale(0.14 -0.14)">
     <defs>
      <path id="DejaVuSans-30" d="M 2034 4250 
Q 1547 4250 1301 3770 
Q 1056 3291 1056 2328 
Q 1056 1369 1301 889 
Q 1547 409 2034 409 
Q 2525 409 2770 889 
Q 3016 1369 3016 2328 
Q 3016 3291 2770 3770 
Q 2525 4250 2034 4250 
z
M 2034 4750 
Q 2819 4750 3233 4129 
Q 3647 3509 3647 2328 
Q 3647 1150 3233 529 
Q 2819 -91 2034 -91 
Q 1250 -91 836 529 
Q 422 1150 422 2328 
Q 422 3509 836 4129 
Q 1250 4750 2034 4750 
z
" transform="scale(0.015625)"/>
     </defs>
     <use xlink:href="#DejaVuSans-Oblique-6e" transform="translate(0 0.78125)"/>
     <use xlink:href="#DejaVuSans-30" transform="translate(63.378906 0.78125)"/>
    </g>
   </g>
   <g id="legend_1">
    <g id="patch_7">
     <path d="M 17 80.048125 
L 113.04 80.048125 
Q 115.84 80.048125 115.84 77.248125 
L 115.84 17 
Q 115.84 14.2 113.04 14.2 
L 17 14.2 
Q 14.2 14.2 14.2 17 
L 14.2 77.248125 
Q 14.2 80.048125 17 80.048125 
z
" style="fill: #ffffff; opacity: 0.8; stroke: #cccccc; stroke-width: 0.5; stroke-linejoin: miter"/>
    </g>
    <g id="line2d_5">
     <path d="M 19.8 25.537813 
L 33.8 25.537813 
L 47.8 25.537813 
" style="fill: none; stroke: #1f77b4; stroke-width: 3"/>
    </g>
    <g id="text_3">
     <!-- $ T(n) $ -->
     <g transform="translate(59 30.437813) scale(0.14 -0.14)">
      <defs>
       <path id="DejaVuSans-Oblique-54" d="M 378 4666 
L 4325 4666 
L 4225 4134 
L 2559 4134 
L 1759 0 
L 1125 0 
L 1925 4134 
L 275 4134 
L 378 4666 
z
" transform="scale(0.015625)"/>
       <path id="DejaVuSans-28" d="M 1984 4856 
Q 1566 4138 1362 3434 
Q 1159 2731 1159 2009 
Q 1159 1288 1364 580 
Q 1569 -128 1984 -844 
L 1484 -844 
Q 1016 -109 783 600 
Q 550 1309 550 2009 
Q 550 2706 781 3412 
Q 1013 4119 1484 4856 
L 1984 4856 
z
" transform="scale(0.015625)"/>
       <path id="DejaVuSans-29" d="M 513 4856 
L 1013 4856 
Q 1481 4119 1714 3412 
Q 1947 2706 1947 2009 
Q 1947 1309 1714 600 
Q 1481 -109 1013 -844 
L 513 -844 
Q 928 -128 1133 580 
Q 1338 1288 1338 2009 
Q 1338 2731 1133 3434 
Q 928 4138 513 4856 
z
" transform="scale(0.015625)"/>
      </defs>
      <use xlink:href="#DejaVuSans-Oblique-54" transform="translate(0 0.125)"/>
      <use xlink:href="#DejaVuSans-28" transform="translate(61.083984 0.125)"/>
      <use xlink:href="#DejaVuSans-Oblique-6e" transform="translate(100.097656 0.125)"/>
      <use xlink:href="#DejaVuSans-29" transform="translate(163.476562 0.125)"/>
     </g>
    </g>
    <g id="line2d_6">
     <path d="M 19.8 46.087188 
L 33.8 46.087188 
L 47.8 46.087188 
" style="fill: none; stroke-dasharray: 7.4,3.2; stroke-dashoffset: 0; stroke: #d62728; stroke-width: 2"/>
    </g>
    <g id="text_4">
     <!-- $ c1 \cdot f(n) $ -->
     <g transform="translate(59 50.987188) scale(0.14 -0.14)">
      <defs>
       <path id="DejaVuSans-Oblique-63" d="M 3431 3366 
L 3316 2797 
Q 3109 2947 2876 3022 
Q 2644 3097 2394 3097 
Q 2119 3097 1870 3000 
Q 1622 2903 1453 2725 
Q 1184 2453 1037 2087 
Q 891 1722 891 1331 
Q 891 859 1127 628 
Q 1363 397 1844 397 
Q 2081 397 2348 469 
Q 2616 541 2906 684 
L 2797 116 
Q 2547 13 2283 -39 
Q 2019 -91 1741 -91 
Q 1044 -91 669 257 
Q 294 606 294 1253 
Q 294 1797 489 2255 
Q 684 2713 1069 3078 
Q 1331 3328 1684 3456 
Q 2038 3584 2456 3584 
Q 2700 3584 2940 3529 
Q 3181 3475 3431 3366 
z
" transform="scale(0.015625)"/>
       <path id="DejaVuSans-31" d="M 794 531 
L 1825 531 
L 1825 4091 
L 703 3866 
L 703 4441 
L 1819 4666 
L 2450 4666 
L 2450 531 
L 3481 531 
L 3481 0 
L 794 0 
L 794 531 
z
" transform="scale(0.015625)"/>
       <path id="DejaVuSans-22c5" d="M 684 2619 
L 1344 2619 
L 1344 1825 
L 684 1825 
L 684 2619 
z
" transform="scale(0.015625)"/>
       <path id="DejaVuSans-Oblique-66" d="M 3059 4863 
L 2969 4384 
L 2419 4384 
Q 2106 4384 1964 4261 
Q 1822 4138 1753 3809 
L 1691 3500 
L 2638 3500 
L 2553 3053 
L 1606 3053 
L 1013 0 
L 434 0 
L 1031 3053 
L 481 3053 
L 563 3500 
L 1113 3500 
L 1159 3744 
Q 1278 4363 1576 4613 
Q 1875 4863 2516 4863 
L 3059 4863 
z
" transform="scale(0.015625)"/>
      </defs>
      <use xlink:href="#DejaVuSans-Oblique-63" transform="translate(0 0.015625)"/>
      <use xlink:href="#DejaVuSans-31" transform="translate(54.980469 0.015625)"/>
      <use xlink:href="#DejaVuSans-22c5" transform="translate(138.085938 0.015625)"/>
      <use xlink:href="#DejaVuSans-Oblique-66" transform="translate(189.355469 0.015625)"/>
      <use xlink:href="#DejaVuSans-28" transform="translate(224.560547 0.015625)"/>
      <use xlink:href="#DejaVuSans-Oblique-6e" transform="translate(263.574219 0.015625)"/>
      <use xlink:href="#DejaVuSans-29" transform="translate(326.953125 0.015625)"/>
     </g>
    </g>
    <g id="line2d_7">
     <path d="M 19.8 66.636563 
L 33.8 66.636563 
L 47.8 66.636563 
" style="fill: none; stroke-dasharray: 7.4,3.2; stroke-dashoffset: 0; stroke: #2ca02c; stroke-width: 2"/>
    </g>
    <g id="text_5">
     <!-- $ c2 \cdot f(n) $ -->
     <g transform="translate(59 71.536563) scale(0.14 -0.14)">
      <defs>
       <path id="DejaVuSans-32" d="M 1228 531 
L 3431 531 
L 3431 0 
L 469 0 
L 469 531 
Q 828 903 1448 1529 
Q 2069 2156 2228 2338 
Q 2531 2678 2651 2914 
Q 2772 3150 2772 3378 
Q 2772 3750 2511 3984 
Q 2250 4219 1831 4219 
Q 1534 4219 1204 4116 
Q 875 4013 500 3803 
L 500 4441 
Q 881 4594 1212 4672 
Q 1544 4750 1819 4750 
Q 2544 4750 2975 4387 
Q 3406 4025 3406 3419 
Q 3406 3131 3298 2873 
Q 3191 2616 2906 2266 
Q 2828 2175 2409 1742 
Q 1991 1309 1228 531 
z
" transform="scale(0.015625)"/>
      </defs>
      <use xlink:href="#DejaVuSans-Oblique-63" transform="translate(0 0.015625)"/>
      <use xlink:href="#DejaVuSans-32" transform="translate(54.980469 0.015625)"/>
      <use xlink:href="#DejaVuSans-22c5" transform="translate(138.085938 0.015625)"/>
      <use xlink:href="#DejaVuSans-Oblique-66" transform="translate(189.355469 0.015625)"/>
      <use xlink:href="#DejaVuSans-28" transform="translate(224.560547 0.015625)"/>
      <use xlink:href="#DejaVuSans-Oblique-6e" transform="translate(263.574219 0.015625)"/>
      <use xlink:href="#DejaVuSans-29" transform="translate(326.953125 0.015625)"/>
     </g>
    </g>
   </g>
  </g>
 </g>
 <defs>
  <clipPath id="pe00d9b1139">
   <rect x="7.2" y="7.2" width="751.68" height="583.2"/>
  </clipPath>
 </defs>
</svg>
