<?xml version="1.0" encoding="utf-8" standalone="no"?>
<!DOCTYPE svg PUBLIC "-//W3C//DTD SVG 1.1//EN"
  "http://www.w3.org/Graphics/SVG/1.1/DTD/svg11.dtd">
<svg xmlns:xlink="http://www.w3.org/1999/xlink" width="766.08pt" height="617.85925pt" viewBox="0 0 766.08 617.85925" xmlns="http://www.w3.org/2000/svg" version="1.1">
 <metadata>
  <rdf:RDF xmlns:dc="http://purl.org/dc/elements/1.1/" xmlns:cc="http://creativecommons.org/ns#" xmlns:rdf="http://www.w3.org/1999/02/22-rdf-syntax-ns#">
   <cc:Work>
    <dc:type rdf:resource="http://purl.org/dc/dcmitype/StillImage"/>
    <dc:date>2024-04-27T21:39:21.968440</dc:date>
    <dc:format>image/svg+xml</dc:format>
    <dc:creator>
     <cc:Agent>
      <dc:title>Matplotlib v3.7.1, https://matplotlib.org/</dc:title>
     </cc:Agent>
    </dc:creator>
   </cc:Work>
  </rdf:RDF>
 </metadata>
 <defs>
  <style type="text/css">*{stroke-linejoin: round; stroke-linecap: butt}</style>
 </defs>
 <g id="figure_1">
  <g id="patch_1">
   <path d="M 0 617.85925 
L 766.08 617.85925 
L 766.08 0 
L 0 0 
z
" style="fill: #ffffff"/>
  </g>
  <g id="axes_1">
   <g id="patch_2">
    <path d="M 7.2 590.4 
L 758.88 590.4 
L 758.88 7.2 
L 7.2 7.2 
z
" style="fill: #ffffff"/>
   </g>
   <g id="matplotlib.axis_1">
    <g id="text_1">
     <!-- $ n \Rightarrow \infty $ -->
     <g transform="translate(360.36 607.165375) scale(0.168 -0.168)">
      <defs>
       <path id="DejaVuSans-Oblique-6e" d="M 3566 2113 
L 3156 0 
L 2578 0 
L 2988 2091 
Q 3016 2238 3031 2350 
Q 3047 2463 3047 2528 
Q 3047 2791 2881 2937 
Q 2716 3084 2419 3084 
Q 1956 3084 1622 2776 
Q 1288 2469 1184 1941 
L 800 0 
L 225 0 
L 903 3500 
L 1478 3500 
L 1363 2950 
Q 1603 3253 1940 3418 
Q 2278 3584 2650 3584 
Q 3113 3584 3367 3334 
Q 3622 3084 3622 2631 
Q 3622 2519 3608 2391 
Q 3594 2263 3566 2113 
z
" transform="scale(0.015625)"/>
       <path id="DejaVuSans-21d2" d="M 4113 1678 
L 4441 2006 
L 4113 2334 
L 366 2334 
L 366 2709 
L 3738 2709 
L 3447 3000 
L 3822 3375 
L 5050 2147 
L 5050 1866 
L 3822 638 
L 3447 1013 
L 3738 1303 
L 366 1303 
L 366 1678 
L 4113 1678 
z
" transform="scale(0.015625)"/>
       <path id="DejaVuSans-221e" d="M 2916 1091 
Q 2819 1203 2666 1466 
Q 2456 1091 2272 925 
Q 2041 725 1681 725 
Q 1259 725 981 1041 
Q 688 1372 688 1919 
Q 688 2444 981 2800 
Q 1244 3116 1688 3116 
Q 1916 3116 2084 3022 
Q 2281 2919 2416 2741 
Q 2541 2581 2666 2366 
Q 2875 2741 3059 2906 
Q 3291 3106 3650 3106 
Q 4072 3106 4350 2791 
Q 4644 2459 4644 1913 
Q 4644 1388 4350 1031 
Q 4088 716 3644 716 
Q 3416 716 3247 809 
Q 3078 894 2916 1091 
z
M 1647 1134 
Q 2163 1134 2472 1884 
Q 2075 2703 1647 2703 
Q 1334 2703 1175 2478 
Q 1003 2238 1003 1919 
Q 1003 1569 1175 1353 
Q 1350 1134 1647 1134 
z
M 3684 2697 
Q 3219 2697 2859 1947 
Q 3253 1128 3684 1128 
Q 3997 1128 4156 1353 
Q 4328 1594 4328 1913 
Q 4328 2263 4156 2478 
Q 3981 2697 3684 2697 
z
" transform="scale(0.015625)"/>
      </defs>
      <use xlink:href="#DejaVuSans-Oblique-6e"/>
      <use xlink:href="#DejaVuSans-21d2" transform="translate(82.861328 0)"/>
      <use xlink:href="#DejaVuSans-221e" transform="translate(186.132812 0)"/>
     </g>
    </g>
   </g>
   <g id="matplotlib.axis_2"/>
   <g id="line2d_1">
    <path d="M 41.367273 534.436364 
L 101.561867 534.327647 
L 133.711253 534.043853 
L 161.072432 533.581368 
L 185.013464 532.958932 
L 206.902408 532.175389 
L 227.423292 531.225984 
L 247.260147 530.085764 
L 265.728943 528.806846 
L 283.51371 527.359197 
L 300.614447 525.751415 
L 317.715184 523.916897 
L 334.131892 521.928564 
L 349.86457 519.801818 
L 365.597248 517.446705 
L 380.645897 514.96956 
L 395.694545 512.262626 
L 410.059165 509.455013 
L 424.423784 506.419875 
L 438.104373 503.309626 
L 451.784963 499.977308 
L 465.465553 496.415263 
L 479.146143 492.615833 
L 492.142703 488.779522 
L 505.139263 484.715496 
L 518.135823 480.417188 
L 531.132383 475.878033 
L 543.444914 471.349665 
L 555.757445 466.593661 
L 568.069975 461.604437 
L 580.382506 456.376413 
L 592.695037 450.904005 
L 605.007568 445.181631 
L 617.320098 439.203708 
L 628.9486 433.318215 
L 640.577101 427.195096 
L 652.205602 420.82965 
L 663.834103 414.217174 
L 675.462604 407.352964 
L 687.091106 400.23232 
L 698.719607 392.850536 
L 710.348108 385.202912 
L 721.976609 377.284744 
L 724.712727 375.381818 
L 724.712727 375.381818 
" clip-path="url(#p26464b77ba)" style="fill: none; stroke: #1f77b4; stroke-width: 3"/>
   </g>
   <g id="line2d_2">
    <path d="M 41.367273 563.890909 
L 50.943686 563.786785 
L 60.520098 563.474414 
L 70.096511 562.953795 
L 79.672924 562.224929 
L 89.249337 561.287815 
L 99.509779 560.052673 
L 109.770221 558.578471 
L 120.030663 556.86521 
L 130.291106 554.912889 
L 140.551548 552.721509 
L 150.81199 550.291068 
L 161.072432 547.621568 
L 171.332875 544.713009 
L 181.593317 541.565389 
L 191.853759 538.17871 
L 202.114201 534.552972 
L 212.374644 530.688173 
L 222.635086 526.584315 
L 232.895528 522.241397 
L 243.155971 517.65942 
L 253.416413 512.838382 
L 263.676855 507.778285 
L 273.937297 502.479129 
L 284.19774 496.940912 
L 294.458182 491.163636 
L 305.402654 484.737712 
L 316.347125 478.03979 
L 327.291597 471.069872 
L 338.236069 463.827957 
L 349.180541 456.314045 
L 360.125012 448.528136 
L 371.069484 440.47023 
L 382.013956 432.140328 
L 392.958428 423.538429 
L 403.902899 414.664533 
L 414.847371 405.51864 
L 426.475872 395.503101 
L 438.104373 385.180503 
L 449.732875 374.550847 
L 461.361376 363.614131 
L 472.989877 352.370357 
L 484.618378 340.819523 
L 496.24688 328.961631 
L 507.875381 316.79668 
L 519.503882 304.32467 
L 531.816413 290.784328 
L 544.128943 276.899741 
L 556.441474 262.670908 
L 568.754005 248.097829 
L 581.066536 233.180503 
L 593.379066 217.918932 
L 605.691597 202.313115 
L 618.004128 186.363052 
L 631.000688 169.15341 
L 643.997248 151.56021 
L 656.993808 133.583452 
L 669.990369 115.223136 
L 682.986929 96.479262 
L 695.983489 77.351829 
L 708.980049 57.840839 
L 721.976609 37.946291 
L 724.712727 33.709091 
L 724.712727 33.709091 
" clip-path="url(#p26464b77ba)" style="fill: none; stroke-dasharray: 7.4,3.2; stroke-dashoffset: 0; stroke: #2ca02c; stroke-width: 2"/>
   </g>
   <g id="line2d_3">
    <path d="M 207.648 590.4 
L 207.648 532.08 
" clip-path="url(#p26464b77ba)" style="fill: none; stroke-dasharray: 3.7,1.6; stroke-dashoffset: 0; stroke: #000000"/>
   </g>
   <g id="patch_3">
    <path d="M 7.2 590.4 
L 7.2 7.2 
" style="fill: none; stroke: #f0f0f0; stroke-width: 3; stroke-linejoin: miter; stroke-linecap: square"/>
   </g>
   <g id="patch_4">
    <path d="M 758.88 590.4 
L 758.88 7.2 
" style="fill: none; stroke: #f0f0f0; stroke-width: 3; stroke-linejoin: miter; stroke-linecap: square"/>
   </g>
   <g id="patch_5">
    <path d="M 7.2 590.4 
L 758.88 590.4 
" style="fill: none; stroke: #f0f0f0; stroke-width: 3; stroke-linejoin: miter; stroke-linecap: square"/>
   </g>
   <g id="patch_6">
    <path d="M 7.2 7.2 
L 758.88 7.2 
" style="fill: none; stroke: #f0f0f0; stroke-width: 3; stroke-linejoin: miter; stroke-linecap: square"/>
   </g>
   <g id="text_2">
    <!-- $ n0 $ -->
    <g transform="translate(189.425455 606.305455) scale(0.14 -0.14)">
     <defs>
      <path id="DejaVuSans-30" d="M 2034 4250 
Q 1547 4250 1301 3770 
Q 1056 3291 1056 2328 
Q 1056 1369 1301 889 
Q 1547 409 2034 409 
Q 2525 409 2770 889 
Q 3016 1369 3016 2328 
Q 3016 3291 2770 3770 
Q 2525 4250 2034 4250 
z
M 2034 4750 
Q 2819 4750 3233 4129 
Q 3647 3509 3647 2328 
Q 3647 1150 3233 529 
Q 2819 -91 2034 -91 
Q 1250 -91 836 529 
Q 422 1150 422 2328 
Q 422 3509 836 4129 
Q 1250 4750 2034 4750 
z
" transform="scale(0.015625)"/>
     </defs>
     <use xlink:href="#DejaVuSans-Oblique-6e" transform="translate(0 0.78125)"/>
     <use xlink:href="#DejaVuSans-30" transform="translate(63.378906 0.78125)"/>
    </g>
   </g>
   <g id="legend_1">
    <g id="patch_7">
     <path d="M 17 59.49875 
L 104.22 59.49875 
Q 107.02 59.49875 107.02 56.69875 
L 107.02 17 
Q 107.02 14.2 104.22 14.2 
L 17 14.2 
Q 14.2 14.2 14.2 17 
L 14.2 56.69875 
Q 14.2 59.49875 17 59.49875 
z
" style="fill: #ffffff; opacity: 0.8; stroke: #cccccc; stroke-width: 0.5; stroke-linejoin: miter"/>
    </g>
    <g id="line2d_4">
     <path d="M 19.8 25.537813 
L 33.8 25.537813 
L 47.8 25.537813 
" style="fill: none; stroke: #1f77b4; stroke-width: 3"/>
    </g>
    <g id="text_3">
     <!-- $ T(n) $ -->
     <g transform="translate(59 30.437813) scale(0.14 -0.14)">
      <defs>
       <path id="DejaVuSans-Oblique-54" d="M 378 4666 
L 4325 4666 
L 4225 4134 
L 2559 4134 
L 1759 0 
L 1125 0 
L 1925 4134 
L 275 4134 
L 378 4666 
z
" transform="scale(0.015625)"/>
       <path id="DejaVuSans-28" d="M 1984 4856 
Q 1566 4138 1362 3434 
Q 1159 2731 1159 2009 
Q 1159 1288 1364 580 
Q 1569 -128 1984 -844 
L 1484 -844 
Q 1016 -109 783 600 
Q 550 1309 550 2009 
Q 550 2706 781 3412 
Q 1013 4119 1484 4856 
L 1984 4856 
z
" transform="scale(0.015625)"/>
       <path id="DejaVuSans-29" d="M 513 4856 
L 1013 4856 
Q 1481 4119 1714 3412 
Q 1947 2706 1947 2009 
Q 1947 1309 1714 600 
Q 1481 -109 1013 -844 
L 513 -844 
Q 928 -128 1133 580 
Q 1338 1288 1338 2009 
Q 1338 2731 1133 3434 
Q 928 4138 513 4856 
z
" transform="scale(0.015625)"/>
      </defs>
      <use xlink:href="#DejaVuSans-Oblique-54" transform="translate(0 0.125)"/>
      <use xlink:href="#DejaVuSans-28" transform="translate(61.083984 0.125)"/>
      <use xlink:href="#DejaVuSans-Oblique-6e" transform="translate(100.097656 0.125)"/>
      <use xlink:href="#DejaVuSans-29" transform="translate(163.476562 0.125)"/>
     </g>
    </g>
    <g id="line2d_5">
     <path d="M 19.8 46.087188 
L 33.8 46.087188 
L 47.8 46.087188 
" style="fill: none; stroke-dasharray: 7.4,3.2; stroke-dashoffset: 0; stroke: #2ca02c; stroke-width: 2"/>
    </g>
    <g id="text_4">
     <!-- $ c \cdot f(n) $ -->
     <g transform="translate(59 50.987188) scale(0.14 -0.14)">
      <defs>
       <path id="DejaVuSans-Oblique-63" d="M 3431 3366 
L 3316 2797 
Q 3109 2947 2876 3022 
Q 2644 3097 2394 3097 
Q 2119 3097 1870 3000 
Q 1622 2903 1453 2725 
Q 1184 2453 1037 2087 
Q 891 1722 891 1331 
Q 891 859 1127 628 
Q 1363 397 1844 397 
Q 2081 397 2348 469 
Q 2616 541 2906 684 
L 2797 116 
Q 2547 13 2283 -39 
Q 2019 -91 1741 -91 
Q 1044 -91 669 257 
Q 294 606 294 1253 
Q 294 1797 489 2255 
Q 684 2713 1069 3078 
Q 1331 3328 1684 3456 
Q 2038 3584 2456 3584 
Q 2700 3584 2940 3529 
Q 3181 3475 3431 3366 
z
" transform="scale(0.015625)"/>
       <path id="DejaVuSans-22c5" d="M 684 2619 
L 1344 2619 
L 1344 1825 
L 684 1825 
L 684 2619 
z
" transform="scale(0.015625)"/>
       <path id="DejaVuSans-Oblique-66" d="M 3059 4863 
L 2969 4384 
L 2419 4384 
Q 2106 4384 1964 4261 
Q 1822 4138 1753 3809 
L 1691 3500 
L 2638 3500 
L 2553 3053 
L 1606 3053 
L 1013 0 
L 434 0 
L 1031 3053 
L 481 3053 
L 563 3500 
L 1113 3500 
L 1159 3744 
Q 1278 4363 1576 4613 
Q 1875 4863 2516 4863 
L 3059 4863 
z
" transform="scale(0.015625)"/>
      </defs>
      <use xlink:href="#DejaVuSans-Oblique-63" transform="translate(0 0.015625)"/>
      <use xlink:href="#DejaVuSans-22c5" transform="translate(74.462891 0.015625)"/>
      <use xlink:href="#DejaVuSans-Oblique-66" transform="translate(125.732422 0.015625)"/>
      <use xlink:href="#DejaVuSans-28" transform="translate(160.9375 0.015625)"/>
      <use xlink:href="#DejaVuSans-Oblique-6e" transform="translate(199.951172 0.015625)"/>
      <use xlink:href="#DejaVuSans-29" transform="translate(263.330078 0.015625)"/>
     </g>
    </g>
   </g>
  </g>
 </g>
 <defs>
  <clipPath id="p26464b77ba">
   <rect x="7.2" y="7.2" width="751.68" height="583.2"/>
  </clipPath>
 </defs>
</svg>
